<?xml version="1.0" encoding="utf-8"?>
<!-- Generator: Adobe Illustrator 26.5.0, SVG Export Plug-In . SVG Version: 6.00 Build 0)  -->
<svg version="1.1" id="Layer_1" xmlns="http://www.w3.org/2000/svg" xmlns:xlink="http://www.w3.org/1999/xlink" x="0px" y="0px"
	 viewBox="0 0 288 288" style="enable-background:new 0 0 288 288;" xml:space="preserve">
<style type="text/css">
	.st0{fill:#C92F0D;}
</style>
<g>
	<path class="st0" d="M101.5,161.7c-4.1-0.3-4.2,6.6-0.2,6.2C105.6,168.7,105.6,161.3,101.5,161.7z"/>
	<path class="st0" d="M152.1,149c-0.4,4.4,6.6,4.4,6.1,0C158.6,145.1,151.6,145.1,152.1,149z"/>
	<path class="st0" d="M130.1,177.2c-0.7,8.4,12.7,8.7,12.3,0.3C143,169.2,129.7,169.3,130.1,177.2z"/>
	<path class="st0" d="M155,108.1c0.2-4-6.7-4.1-6.1,0.1C148.3,112.6,155.6,112.3,155,108.1z"/>
	<path class="st0" d="M199.9,107.8c-15.8-8.6-33-15.6-49.3-23.7c-0.8-0.4-1.2-0.3-1.8,0.4c-19.2,21-38.5,41.8-57.5,63
		c0,0.1,0.1,0.2,0.1,0.2C127.6,134.4,163.7,121.1,199.9,107.8z M161.3,107.9c-0.5,13.2-18.5,11.8-18.7,0.3
		C143,96.2,160.7,96.3,161.3,107.9z"/>
	<path class="st0" d="M145.6,41.2c-141.9,2.4-142,213.6,0,216C287.5,254.8,287.6,43.6,145.6,41.2z M211.6,122.7
		c0.1,2.3-0.9,4.6-3.5,4.6c-2,0-2.8,1.2-2.7,3.1c-0.4,4,4.2,2.2,5.9,4.8c0.9,12,0,24.4,0.2,36.5c-0.2,2,0.2,4.9-2.1,5.6
		c-29.3,11.4-58.7,23.2-88.2,34.1c-2.4,0.9-4-0.2-4.3-2.7c-0.4-4.5-7.3-3.4-6.1,0.8c1,2.4,2.6,5.1-0.7,6.3
		c-10.7,3.5-21.2,9.8-32.1,11.9c-3.9-2.8-1.3-12.7-2-17.3c0.2-0.1,0.2-0.1,0.1-0.1c0.1-4.7,0.2-9.4,0.3-14.1c0.2-4.7,7.9-4.3,6-10.7
		c-0.5-4.4-7-4.1-6.2-9c0.4-7.5-0.9-15.4,0.6-22.7c6.3-7,12.6-14,19-20.9c18-17.9,34.1-40.4,53.1-56c20.6,8.9,40.8,19,61,28.9
		C213.8,108.6,210.7,118.1,211.6,122.7z"/>
	<path class="st0" d="M186.4,149.2c-8-0.3-8.1,13,0.2,12.5C194.9,162.1,195,148.4,186.4,149.2z"/>
	<path class="st0" d="M205.5,112.7c-40.7,15.1-82.9,29-122.7,45.3c0,5.7-0.1,11.5-0.1,17.2c3.8,4.5,8.3,9.5,5.3,16
		c-0.8,3.2-4.2,4.7-5.2,7.5c0,7.1,0,14,0,21.1c7.2-2.5,14.3-5.5,21.5-8.2c0.9-0.7,0.5-2.4,0.6-3.4c0.2-3.5,3.7-7.7,7.1-8.4
		c7.6-1.8,8,4.5,11.8,4.1c26.9-10.5,53.9-21.1,80.9-31.6c0.5-0.2,0.9-0.4,0.9-1c0-10.6,0.1-21.1,0.1-31.7c-0.2-1.4-2.1-1.6-3-2.6
		c-5.5-4.8-3.8-12.4,2.4-15.6C206.3,118.9,205.4,115.5,205.5,112.7z M101.5,174.2c-12-0.3-12.1-17.8-0.6-18.7
		C114.3,155.8,113.2,173.9,101.5,174.2z M136.2,190.1C120,189.2,120,165.7,136,165C153.2,165.7,151.9,189.7,136.2,190.1z
		 M154.7,158.5c-11.7-0.8-11.6-17.7,0.1-18.7C167.1,140.3,167.7,157.9,154.7,158.5z M186.6,167.8c-16.1,0.1-16.3-24.1-0.1-24.9
		C203.4,143.7,202.6,167.6,186.6,167.8z"/>
</g>
</svg>
