<?xml version="1.0" encoding="utf-8"?>
<!-- Generator: Adobe Illustrator 26.5.0, SVG Export Plug-In . SVG Version: 6.00 Build 0)  -->
<svg version="1.1" id="Layer_1" xmlns="http://www.w3.org/2000/svg" xmlns:xlink="http://www.w3.org/1999/xlink" x="0px" y="0px"
	 viewBox="0 0 427.7 428" style="enable-background:new 0 0 427.7 428;" xml:space="preserve">
<style type="text/css">
	.st0{fill:#FCFCFC;}
</style>
<g>
	<g>
		<path class="st0" d="M394.1,185.7c0.5,98.1-80.2,179.5-178.6,180.1c-99.2,0.7-181.4-80.1-181.9-178.5C33,86.8,112.7,5.8,212.6,5.2
			C312.3,4.7,393.5,85.4,394.1,185.7z M45.5,185.2c0,92.6,75.1,167.8,167.8,168c92.7,0.2,168.2-75.2,168.2-168
			c0-92.7-75.1-167.8-167.8-168C121,17.1,45.5,92.4,45.5,185.2z"/>
		<path class="st0" d="M284.3,247c9.9,3.2,19.4,6.3,28.8,9.4c1.2,0.4,2.3,0.9,3.5,1.3c4.1,1.7,5.7,4.8,4.4,8.1
			c-1.4,3.4-4.6,4.5-8.8,3c-4.2-1.5-8.4-3.2-12.7-4.5c-6.4-2-13-3.6-19.4-5.6c-2.9-0.9-4.4,0-6,2.4c-17.9,25.1-36,50.2-54,75.2
			c-0.4,0.5-0.7,1-1.1,1.5c-3.5,4.6-7.6,4.6-11,0c-9.5-13.2-19-26.4-28.5-39.5c-8.9-12.4-17.9-24.7-26.7-37.1
			c-1.5-2.1-2.7-2.7-5.2-1.9c-5.8,1.9-11.8,3.3-17.6,5.1c-14.4,4.4-28.4-2.4-33-16c-4.6-13.5,2.2-27.2,16.1-32.7
			c1.7-0.7,3.4-1.3,5.5-2.1c-5.5-7.7-10.7-15-16.2-22.7c-6.6,3.6-13,7.2-19.5,10.6c-1.5,0.8-3.6,2-4.8,1.5c-2.1-0.8-4.7-2.6-5.1-4.5
			c-0.4-1.8,0.9-5.2,2.5-6.2c5.2-3.5,10.8-6.2,16.3-9.2c1.1-0.6,2.2-1.1,3.6-1.9c-4.6-6.4-9-12.5-13.4-18.7
			c-3.4-4.8-6.7-9.6-10.3-14.3c-2.1-2.8-2.5-5.5-1.3-8.7c3.7-9.9,9.3-18.8,16-27c1-1.3,1.7-3.4,1.5-4.9
			c-1.9-14.3,4.6-27.4,16.9-33.4c12.2-5.9,25.4-3,35.7,7.7c0.3,0.3,0.5,0.5,0.8,0.7c2.9-2.3,5.6-4.9,8.7-6.9
			c2.5-1.6,5.4-3.2,8.2-3.4c4.8-0.5,7.6-2.8,10.2-6.7c4.5-6.6,9.6-12.8,14.3-19.3c5.4-7.6,12.7-10.6,21.7-9.7
			c0.7,0.1,1.5,0.1,2.2,0.2c0.1,0,0.2-0.1,0.6-0.2c0.1-0.4,0.2-1,0.3-1.6c0.6-3.7,3-5.9,6.2-5.8c3.4,0.1,5.7,2.7,5.8,6.6
			c0.1,2.6,0,5.2,0,8.8c2.5-2.4,4.4-4.2,6.2-6.2c2.1-2.2,4.5-4.4,7.4-2.8c2.2,1.2,3.7,3.8,5.5,5.7c-0.3,0.3-0.6,0.7-0.8,1
			c1.7,0.2,3.4,0.3,5.1,0.5c0.3-0.3,0.5-0.5,0.5-0.7c0.7-4.8,3-7.3,6.6-6.9c3.5,0.3,5.4,2.9,5.5,7.6c0,2.2,0,4.5,0,7.7
			c2.6-2.5,4.6-4.5,6.7-6.5c3.4-3.3,6.9-3.7,9.5-1c2.7,2.7,2.3,6.1-1.1,9.5c-2,2-4.1,3.9-5.7,6.7c2.1,0,4.1,0,6.2,0
			c5.3,0,8,1.8,8.3,5.5s-2.1,5.9-7.9,7.5c2.3,1.4,4.8,2.7,7,4.4c2.4,1.8,4.5,3.9,7,6c0.4-0.3,1-0.8,1.5-1.3
			c9.8-10.2,23.2-13,35.2-7.2s18.9,18.7,17,32.2c-0.4,2.9,0.3,4.8,2.1,7c6.5,7.7,11.6,16.2,15.2,25.6c1.4,3.5,0.9,6.4-1.3,9.4
			c-7.6,10.3-14.9,20.7-22.4,31c-0.1,0.2-0.2,0.5-0.5,1c3.7,2.1,7.6,4,11.2,6.3c15.7,10.1,14.9,33.3-1.4,42.3
			c-6.8,3.8-14,4.2-21.3,1.3c-5.6-2.2-11.1-4.5-16.8-6.5c-1-0.4-3.1,0-3.7,0.8C295,232,289.7,239.4,284.3,247z M341.3,147.1
			c-85.4-20.9-170.3-20.9-255.6,0c7.1,9.9,14,19.4,20.9,29.1c1.4-0.5,2.6-1,3.8-1.4c48.6-19.1,98.7-23.8,150.2-15.9
			c19.8,3,39.1,8,57.7,15.5c1.1,0.4,3.2,0.3,3.7-0.4C328.4,165.2,334.7,156.3,341.3,147.1z M160.8,84.1c-7.4,1.7-12.6,8-13.3,15.8
			c-0.4,4.7-2.4,7.1-5.9,7.2c-3.6,0.1-5.8-2.4-6.1-7c-0.8-10.1-9-17.4-18.8-17c-9.4,0.4-17.2,8.7-17.1,18.4
			c0.1,9.8,3.7,18.2,10.5,25.3c1.5,1.6,3,2,5.3,1.6c28.7-5.2,57.6-8.5,86.7-9.2c36.9-0.9,73.3,2.8,109.6,9.2c2.3,0.4,3.8,0,5.3-1.6
			c6.9-7.2,10.6-15.7,10.5-25.6c-0.1-12.4-12.2-21.2-23.7-17.1c-7.7,2.7-11.7,8.5-12.3,16.7c-0.3,3.9-2.7,6.3-6.1,6.3
			c-3.2-0.1-5.5-2.4-5.9-6.1c-0.1-0.6,0-1.3-0.1-1.9c-0.9-5.6-3.3-10.2-7.9-12.8c-2.7,3-4.7,6.7-7.7,8
			c-13.2,5.6-26.6,10.7-40.1,15.5c-6.5,2.3-14.1,2.5-18.5-3.2c-5.3-6.8-10.4-5.8-16.7-3c-1.3,0.6-2.9,0.8-4.4,1.1
			c-6.6,1-12.3-0.7-17.1-5.5C162.9,95.1,161.1,90,160.8,84.1z M113.7,186.1c5.1,7.2,10,13.8,14.7,20.6c1.5,2.2,2.8,2.8,5.5,2
			c24.2-7.2,48.9-10.9,74.2-11.3c29.1-0.5,57.8,2.8,85.9,10.8c2.4,0.7,3.6,0.1,4.9-1.8c4.3-6.2,8.7-12.2,13.1-18.3
			c0.5-0.7,0.9-1.6,1.7-2.9C246.7,161.1,180.4,160.9,113.7,186.1z M289.6,219.1c-50.8-13-101-13.5-151.6,0.7
			c5.5,7.6,10.7,14.6,15.6,21.9c1.8,2.8,3.7,3.1,6.8,2.6c10.8-1.7,21.7-3.4,32.6-4.3c25.5-2.1,50.9-0.4,76.1,4.1
			c1,0.2,2.7-0.5,3.4-1.3C278.1,235.2,283.6,227.5,289.6,219.1z M213.5,324.9c16.8-23.3,33.2-46.2,50-69.6
			c-33.6-5.4-66.4-5.7-99.7,0.4C180.5,279,196.8,301.8,213.5,324.9z M224.9,71.1c-1-2.3-1.6-5.1-3.2-6.9c-4.1-4.7-8.5-9.1-13.2-13.2
			c-4.9-4.3-11.9-3.2-15.8,2c-5,6.7-10.2,13.2-15,20.1c-2,2.8-3.6,6.1-4.4,9.4c-1.7,6.7,3.6,11.8,10.4,10.3c1.1-0.3,2.2-0.6,3.2-1
			c10.6-4.1,21.1-8.3,31.7-12.1C222.8,78.1,224.1,75.3,224.9,71.1z M210.8,95.6c2.8,4,6.3,4.1,9.7,2.8c11.6-4.3,23-8.8,34.6-13
			c3.3-1.2,4.7-3.4,5.1-6.6c0.4-3.7-0.6-6.9-3.2-9.6c-3.8-3.8-7.6-7.6-11.4-11.4c-0.6-0.6-1.4-1-2.4-1.8c0.9,6.3-0.2,7.6-7.2,9.8
			c0.1,1.5,0.3,2.9,0.3,4.4c0.5,9.7-4,16.7-13,20.3C219.2,92.2,215.2,93.8,210.8,95.6z M143.3,247.8c-4.1-5.7-8-11.1-11.9-16.6
			c-5.6-7.8-5.6-7.8-14.6-4.2c-7,2.8-10.6,9.7-8.7,16.5c2,7.1,8.8,11.5,16.2,9.8C130.6,251.9,136.7,249.8,143.3,247.8z M309,212.7
			c6.1,2.4,11.8,5,17.7,6.9c6,2,12.4-1.1,15.1-6.6c2.6-5.5,1.2-12.2-3.9-15.7c-4-2.7-8.4-4.7-12.7-7
			C319.6,198,314.3,205.2,309,212.7z M92.6,123.6c-2.4,3.7-4.4,6.9-7,10.9c4.8-1.1,8.5-1.9,12.4-2.8
			C96.2,129.1,94.7,126.7,92.6,123.6z M341.5,134.5c-2.7-4-4.8-7.3-7.2-10.8c-2,3-3.6,5.5-5.3,8.2
			C333,132.7,336.8,133.5,341.5,134.5z"/>
	</g>
	<g>
		<g>
			<path class="st0" d="M89.8,408.2c-0.5,0.4-1.4,0.9-2.7,1.6c-1.3,0.7-2.9,1.3-4.8,1.8c-1.9,0.5-4,0.8-6.2,0.7
				c-3.5-0.1-6.6-0.7-9.3-1.9c-2.7-1.2-5.1-2.8-7-4.8c-1.9-2-3.4-4.4-4.4-7c-1-2.6-1.5-5.5-1.5-8.5c0-3.4,0.5-6.4,1.5-9.2
				c1-2.8,2.5-5.2,4.4-7.3c1.9-2,4.2-3.6,6.8-4.7c2.6-1.1,5.6-1.7,8.8-1.7c3,0,5.6,0.4,7.9,1.2c2.3,0.8,4.1,1.7,5.6,2.6l-3.4,8.2
				c-1-0.8-2.3-1.5-4-2.4c-1.7-0.8-3.6-1.2-5.7-1.2c-1.7,0-3.3,0.4-4.8,1c-1.5,0.7-2.9,1.7-4.1,3c-1.2,1.3-2.1,2.8-2.8,4.5
				c-0.7,1.7-1,3.5-1,5.5c0,2.1,0.3,4.1,0.9,5.8c0.6,1.8,1.5,3.3,2.7,4.5c1.2,1.3,2.5,2.2,4.2,2.9c1.6,0.7,3.4,1,5.5,1
				c2.4,0,4.4-0.4,6.1-1.1c1.7-0.8,3-1.6,3.8-2.4L89.8,408.2z"/>
			<path class="st0" d="M104.6,385.6l0.8,7.2l-0.2-1.1c0.8-1.6,1.8-2.9,3.1-4c1.3-1.1,2.6-2,3.9-2.6c1.3-0.6,2.3-0.9,3-0.9l-0.4,8.4
				c-2-0.2-3.6,0.1-5,1c-1.4,0.9-2.5,2-3.2,3.5c-0.8,1.4-1.1,2.9-1.1,4.4v10.3h-8.3v-26.2H104.6z"/>
			<path class="st0" d="M134.6,412.6c-3.2,0-5.9-0.6-8.1-1.8c-2.2-1.2-3.9-2.9-5.1-5c-1.2-2.1-1.7-4.6-1.7-7.3c0-2.6,0.7-5,2-7.1
				c1.4-2.1,3.2-3.8,5.5-5.1c2.3-1.3,4.8-1.9,7.6-1.9c3.8,0,6.8,1.1,9.3,3.3c2.4,2.2,4,5.3,4.7,9.5l-20.4,6.5l-1.9-4.6l14.8-5
				l-1.7,0.8c-0.3-1-0.9-1.9-1.7-2.7c-0.8-0.8-2.1-1.2-3.7-1.2c-1.2,0-2.3,0.3-3.3,0.9c-0.9,0.6-1.7,1.4-2.2,2.5
				c-0.5,1.1-0.8,2.3-0.8,3.8c0,1.6,0.3,3,0.9,4.1s1.4,1.9,2.5,2.5c1,0.6,2.2,0.8,3.5,0.8c0.9,0,1.8-0.2,2.7-0.5
				c0.9-0.3,1.7-0.7,2.6-1.3l3.7,6.2c-1.4,0.8-2.9,1.4-4.5,1.9S136,412.6,134.6,412.6z"/>
			<path class="st0" d="M171.3,412.6c-1.6,0-3.1-0.3-4.6-0.9s-2.8-1.4-3.8-2.5l0.2-2.5v17.7h-8.3V385h7.2l1.2,5.1l-0.7-1.8
				c1.4-1.2,2.9-2.1,4.6-2.9c1.7-0.8,3.6-1.1,5.8-1.1c2.4,0,4.6,0.6,6.5,1.7c1.9,1.1,3.4,2.8,4.5,4.9c1.1,2.1,1.7,4.7,1.7,7.7
				c0,3-0.6,5.5-1.9,7.6c-1.2,2.1-2.9,3.7-5.1,4.7C176.6,412,174.1,412.6,171.3,412.6z M169.6,406c1.4,0,2.6-0.3,3.8-0.9
				c1.1-0.6,2.1-1.4,2.8-2.5c0.7-1.1,1.1-2.3,1.1-3.8c0-1.5-0.3-2.8-0.9-3.9c-0.6-1.1-1.5-2-2.5-2.6c-1.1-0.6-2.2-0.9-3.5-0.9
				c-1.1,0-2.1,0.2-3,0.5c-0.9,0.3-1.6,0.7-2.3,1.3c-0.7,0.6-1.2,1.3-1.7,2.2v6.4c0.3,0.8,0.8,1.6,1.4,2.2c0.6,0.6,1.3,1.1,2.2,1.5
				C167.7,405.8,168.6,406,169.6,406z"/>
			<path class="st0" d="M205.2,412.6c-3.2,0-5.9-0.6-8.1-1.8c-2.2-1.2-3.9-2.9-5.1-5c-1.2-2.1-1.7-4.6-1.7-7.3c0-2.6,0.7-5,2-7.1
				c1.4-2.1,3.2-3.8,5.5-5.1c2.3-1.3,4.8-1.9,7.6-1.9c3.8,0,6.8,1.1,9.3,3.3c2.4,2.2,4,5.3,4.7,9.5l-20.4,6.5l-1.9-4.6l14.8-5
				l-1.7,0.8c-0.3-1-0.9-1.9-1.7-2.7c-0.8-0.8-2.1-1.2-3.7-1.2c-1.2,0-2.3,0.3-3.3,0.9c-0.9,0.6-1.7,1.4-2.2,2.5
				c-0.5,1.1-0.8,2.3-0.8,3.8c0,1.6,0.3,3,0.9,4.1s1.4,1.9,2.5,2.5c1,0.6,2.2,0.8,3.5,0.8c0.9,0,1.8-0.2,2.7-0.5
				c0.9-0.3,1.7-0.7,2.6-1.3l3.7,6.2c-1.4,0.8-2.9,1.4-4.5,1.9S206.6,412.6,205.2,412.6z"/>
			<path class="st0" d="M223.4,398.4c0-2.7,0.6-5.1,1.9-7.2c1.3-2.1,3-3.8,5.3-5c2.3-1.2,4.9-1.8,7.9-1.8c3,0,5.6,0.6,7.8,1.8
				c2.2,1.2,3.9,2.9,5.1,5c1.2,2.1,1.8,4.5,1.8,7.2c0,2.7-0.6,5.1-1.8,7.2c-1.2,2.1-2.9,3.8-5.1,5.1c-2.2,1.2-4.8,1.9-7.9,1.9
				c-2.9,0-5.5-0.6-7.7-1.7s-4-2.7-5.3-4.9C224.1,403.9,223.4,401.4,223.4,398.4z M231.9,398.5c0,1.4,0.3,2.6,0.8,3.7
				c0.6,1.1,1.3,2,2.3,2.6s2,1,3.2,1c1.3,0,2.5-0.3,3.4-1s1.7-1.5,2.2-2.6c0.5-1.1,0.8-2.3,0.8-3.7c0-1.4-0.3-2.6-0.8-3.7
				c-0.5-1.1-1.3-1.9-2.2-2.6c-1-0.6-2.1-1-3.4-1c-1.2,0-2.3,0.3-3.2,1c-1,0.6-1.7,1.5-2.3,2.6C232.2,395.8,231.9,397.1,231.9,398.5
				z"/>
			<path class="st0" d="M259.7,364.5h8.4v47.3h-8.4V364.5z"/>
			<path class="st0" d="M274.7,398.4c0-2.7,0.6-5.1,1.9-7.2c1.3-2.1,3-3.8,5.3-5c2.3-1.2,4.9-1.8,7.9-1.8c3,0,5.6,0.6,7.8,1.8
				c2.2,1.2,3.9,2.9,5.1,5c1.2,2.1,1.8,4.5,1.8,7.2c0,2.7-0.6,5.1-1.8,7.2c-1.2,2.1-2.9,3.8-5.1,5.1c-2.2,1.2-4.8,1.9-7.9,1.9
				c-2.9,0-5.5-0.6-7.7-1.7s-4-2.7-5.3-4.9C275.4,403.9,274.7,401.4,274.7,398.4z M283.2,398.5c0,1.4,0.3,2.6,0.8,3.7
				c0.6,1.1,1.3,2,2.3,2.6s2,1,3.2,1c1.3,0,2.5-0.3,3.4-1s1.7-1.5,2.2-2.6c0.5-1.1,0.8-2.3,0.8-3.7c0-1.4-0.3-2.6-0.8-3.7
				c-0.5-1.1-1.3-1.9-2.2-2.6c-1-0.6-2.1-1-3.4-1c-1.2,0-2.3,0.3-3.2,1c-1,0.6-1.7,1.5-2.3,2.6C283.5,395.8,283.2,397.1,283.2,398.5
				z"/>
			<path class="st0" d="M324.6,425.1c-2.4,0-4.3-0.3-6-0.8s-3-1.2-4.1-2c-1.1-0.8-2.1-1.6-3-2.3l4.9-5.8c0.9,0.8,2,1.7,3.2,2.4
				c1.2,0.8,2.8,1.2,4.8,1.2c1.3,0,2.6-0.2,3.7-0.7c1.1-0.5,2.1-1.1,2.8-2c0.7-0.9,1-2,1-3.3V406l0.3,1.5c-0.6,1.4-1.8,2.6-3.5,3.6
				s-3.9,1.5-6.6,1.5c-2.4,0-4.6-0.6-6.6-1.8c-2-1.2-3.6-2.9-4.8-5c-1.2-2.1-1.8-4.5-1.8-7.2c0-2.8,0.6-5.2,1.9-7.4
				c1.3-2.1,2.9-3.8,5-5.1c2-1.2,4.2-1.9,6.5-1.9s4.2,0.3,5.9,1c1.7,0.7,2.9,1.5,3.8,2.4l-0.3,0.8l0.9-2.9h7.7v26.2
				c0,2.6-0.7,4.8-2.2,6.8c-1.4,2-3.4,3.5-5.7,4.7C330.1,424.5,327.5,425.1,324.6,425.1z M317.5,398.4c0,1.4,0.3,2.7,1,3.8
				c0.6,1.1,1.5,2,2.6,2.6c1.1,0.6,2.3,1,3.7,1c1.2,0,2.2-0.1,3.1-0.4c0.9-0.3,1.7-0.7,2.4-1.3c0.7-0.6,1.3-1.3,1.8-2.2v-6.4
				c-0.4-0.9-0.9-1.6-1.6-2.2c-0.7-0.6-1.6-1.1-2.5-1.4c-0.9-0.3-2-0.5-3.2-0.5c-1.4,0-2.6,0.3-3.7,0.9c-1.1,0.6-2,1.5-2.6,2.5
				C317.8,395.7,317.5,397,317.5,398.4z"/>
			<path class="st0" d="M358.1,412l-12.8-26.3h9.4l9.9,22.1L358.1,412z M351.1,424.5l17.5-38.8h7.6l-16.9,38.8H351.1z"/>
		</g>
	</g>
</g>
</svg>
