<?xml version="1.0" encoding="utf-8"?>
<!-- Generator: Adobe Illustrator 26.5.0, SVG Export Plug-In . SVG Version: 6.00 Build 0)  -->
<svg version="1.1" id="Layer_1" xmlns="http://www.w3.org/2000/svg" xmlns:xlink="http://www.w3.org/1999/xlink" x="0px" y="0px"
	 viewBox="0 0 511.9 511.9" style="enable-background:new 0 0 511.9 511.9;" xml:space="preserve">
<style type="text/css">
	.st0{fill-rule:evenodd;clip-rule:evenodd;fill:#FFFFFF;}
	.st1{fill:#FFFFFF;}
</style>
<g>
	<g id="surface1">
		<path class="st0" d="M200.3,344.5c0-29.4-0.1-58.8,0.1-88.2c0-5-1.4-6.5-6.3-6.3c-9.2,0.4-18.4,0-27.5,0.2c-3.7,0.1-5.1-0.9-5-4.9
			c0.2-18.3,0.2-36.7,0-55.1c0-3.5,1-4.7,4.6-4.6c9.4,0.2,18.8-0.3,28.1,0.2c5.4,0.3,6.5-1.7,6.4-6.7c-0.3-14-0.3-27.9,0-41.9
			c0.4-17.1,5-33,15.1-46.8c12.9-17.6,31.1-25.6,52.2-26.5c21.7-1,43.4-0.4,65-0.7c3,0,3.9,1,3.9,4c-0.1,18.6-0.1,37.1,0,55.7
			c0,3.3-1,4.3-4.3,4.3c-10.4-0.2-20.9-0.1-31.3-0.1c-13.9,0-22.2,7.2-23.1,20.9c-0.7,11-0.2,22.1-0.4,33.1
			c-0.1,3.9,2.2,3.7,4.8,3.7c15.8,0,31.7,0.2,47.5-0.1c4.7-0.1,6.2,1,5.7,5.9c-2,18.4-3.7,36.9-5.3,55.4c-0.4,4.2-2.3,5-6,4.9
			c-12.5-0.2-25-0.1-37.5-0.1c-9,0.1-8.1-1.3-8.1,7.8c0,57.6-0.1,115.1,0.1,172.7c0,6.1-1.5,7.6-7.5,7.5c-21.5-0.4-43-0.4-64.4,0
			c-6.1,0.1-7-1.9-7-7.3C200.4,402.5,200.3,373.5,200.3,344.5"/>
	</g>
	<path class="st1" d="M256,6C118.2,6,6,118.2,6,256s112.2,250,250,250s250-112.1,250-250S393.9,6,256,6z M255.8,472.9
		c-120.9,0-219-98-219-219s98-219,219-219s219,98,219,219S376.7,472.9,255.8,472.9z"/>
</g>
</svg>
