<?xml version="1.0" encoding="utf-8"?>
<!-- Generator: Adobe Illustrator 26.5.0, SVG Export Plug-In . SVG Version: 6.00 Build 0)  -->
<svg version="1.1" id="Layer_1" xmlns="http://www.w3.org/2000/svg" xmlns:xlink="http://www.w3.org/1999/xlink" x="0px" y="0px"
	 viewBox="0 0 288 288" style="enable-background:new 0 0 288 288;" xml:space="preserve">
<style type="text/css">
	.st0{fill:#FFFFFF;}
	.st1{fill-rule:evenodd;clip-rule:evenodd;fill:#C92F0D;}
</style>
<g>
	<g>
		<circle class="st0" cx="145.6" cy="149.2" r="108"/>
	</g>
	<path class="st1" d="M97.6,125c-1.1-27.5,18.6-53.2,46.4-53.2c27.8,0,47.6,25.7,46.4,53.2c4.1,2.5,7.1,7,7.8,12.5
		c0.9,6.5-1.4,12.4-6,16.2c-3.5,2.8-8,4.1-12.8,4.2l-16.3,32.6L149,218.9c-1,2-2.9,3.3-5,3.3c-2.1,0-4-1.3-5-3.3l-14.1-28.4
		l-16.3-32.6c-4.8-0.1-9.3-1.4-12.8-4.2c-4.7-3.7-6.9-9.6-6-16.1C90.5,132,93.4,127.5,97.6,125z M108.9,123.1
		c2.2,0.5,4.2,1.3,5.9,2.1c0.9,0.4,1.6,0.8,2.3,1.1c2,1,3.4,1.7,5,2l0,0c2.7,0.5,4.4,0.1,7.4-0.8c0.1,0,0.2,0,0.2-0.1
		c3.3-1,7.5-2.3,14.2-2.3c6.7,0,10.9,1.3,14.2,2.3c0.1,0,0.2,0,0.2,0.1c3.1,0.9,4.7,1.4,7.4,0.8c1.6-0.3,2.9-1,5-2
		c0.7-0.3,1.5-0.7,2.4-1.1c1.6-0.8,3.6-1.6,5.9-2.1c0.2-20.2-14.6-38.7-35.1-38.7C123.5,84.4,108.8,102.9,108.9,123.1z M122.4,159.5
		l8.1,16.2l7-10.7c-3.9-0.9-7.5-2.4-10.6-3.7c-0.4-0.2-0.7-0.3-1.1-0.5C124.6,160.3,123.5,159.9,122.4,159.5z M150.5,165
		c3.9-0.9,7.5-2.4,10.6-3.7c0.4-0.2,0.7-0.3,1.1-0.5c1.2-0.5,2.3-1,3.4-1.4l-8.1,16.2L150.5,165z M151.4,187.9l-7.4-11.4l-7.4,11.4
		l7.4,14.9L151.4,187.9z M176.3,137.4c-2.2,1.1-5.3,2.7-8.5,3.3c-5.4,1-9.1-0.1-12.5-1.1c-0.1,0-0.1,0-0.2-0.1
		c-3-0.9-6.1-1.9-11.2-1.9c-5.1,0-8.2,0.9-11.2,1.9c-0.1,0-0.1,0-0.2,0.1c-3.3,1-7.1,2.2-12.5,1.1c-3.2-0.6-6.3-2.2-8.5-3.3
		c-0.5-0.2-1-0.5-1.4-0.7c-2.6-1.2-4.2-1.6-5.6-1.3c-2,0.4-3.3,1.9-3.6,3.9c-0.3,2.1,0.3,3.3,1.5,4.3c1.4,1.1,4.2,2.1,8.7,1.6
		c7-0.8,13.5,1.8,18.6,4c0.2,0.1,0.3,0.1,0.5,0.2c5.4,2.2,9.5,3.9,13.6,3.9c4.1,0,8.2-1.7,13.6-3.9c0.2-0.1,0.3-0.1,0.5-0.2
		c5.1-2.1,11.7-4.8,18.6-4l0,0c4.5,0.5,7.3-0.5,8.7-1.6c1.2-0.9,1.7-2.2,1.5-4.3l0,0c-0.3-2-1.6-3.5-3.6-3.9c-1.5-0.3-3,0.1-5.7,1.3
		C177.3,136.9,176.8,137.1,176.3,137.4z"/>
</g>
</svg>
