<?xml version="1.0" encoding="utf-8"?>
<!-- Generator: Adobe Illustrator 26.5.0, SVG Export Plug-In . SVG Version: 6.00 Build 0)  -->
<svg version="1.1" id="Layer_1" xmlns="http://www.w3.org/2000/svg" xmlns:xlink="http://www.w3.org/1999/xlink" x="0px" y="0px"
	 viewBox="0 0 216 216" style="enable-background:new 0 0 216 216;" xml:space="preserve">
<style type="text/css">
	.st0{fill:#FFFFFF;stroke:#FCFCFC;stroke-width:0.8702;stroke-miterlimit:10;}
	.st1{fill:none;stroke:#FFFFFF;stroke-width:4.3512;stroke-miterlimit:10;}
	.st2{fill:#FFFFFF;}
</style>
<g>
	<g>
		<g>
			<path class="st0" d="M84.6,119.5c-0.1-5.4-0.1-10.5-0.3-15.9c0-6.2,0-12.1,0-18.3c0-0.3-0.1-2.8,1.6-4.2c1.2-0.9,2.6-0.9,3-0.9
				c0.5,0,2,0,3,0.9c1.7,1.5,1.6,3.9,1.6,4.2c0,5.8,0,11.7,0.1,17.6c-0.1,5.5-0.1,11.1-0.3,16.6c2.8-2.1,4.8-4.2,6.2-5.7
				c1.2-1.3,2.3-2.8,4-3c0.8,0,1.6,0.3,2.3,0.8c1.5,1.1,2.3,2.3,2.6,3.9c0.1,1.5-0.7,2.7-1.5,3.7c-2.3,3.2-4.4,6-5.7,7.4l0,0
				c-2.7,3-4.8,5.5-6,7c-3.6,4.2-4.7,5.1-6.2,5.1s-2-1.1-6.4-5.8c-2.3-2.6-1.7-1.7-5.4-5.6c-1.1-1.2-3.7-4-6.4-7.8
				c-1.1-1.5-1.7-2.7-1.6-4c0.1-1.3,0.9-2.6,2.3-3.6c0.9-0.8,1.9-1.1,2.8-1.1c1.7,0.1,2.8,1.6,4,3C79.9,115.6,81.8,117.6,84.6,119.5
				z"/>
		</g>
		<path class="st1" d="M95.5,26.2c-0.8,2.3-2.5,8.3-0.1,14.6c0.3,1.1,3.4,9.2,9.1,10.2c0.5,0.1,2.7,0.4,4.4-1c1.9-1.6,2-4.3,1.9-5.4
			c0.1-5.5-4.1-9.7-6.4-12.1C102.6,30.7,99.6,28.2,95.5,26.2z"/>
		<path class="st1" d="M88,54.7c0.4,2.2,1.6,7.2,6.4,10.4c0.8,0.5,7.4,4.7,13.1,1.9c0.5-0.3,2.7-1.4,3.6-3.3c1.1-2.2-0.2-4.2-0.6-5
			c-2.3-4-8.3-4.4-11.7-4.9C96.6,53.6,92.8,53.5,88,54.7z"/>
		<path class="st1" d="M96.5,72.2c0.4,2.2,1.6,7.2,6.4,10.4c0.8,0.5,7.4,4.7,13.1,1.9c0.5-0.3,2.7-1.4,3.6-3.3
			c1.1-2.2-0.2-4.2-0.6-5c-2.3-4-8.3-4.4-11.7-4.9C105,71.3,101.2,71.3,96.5,72.2z"/>
		<path class="st1" d="M105.6,89.4c0.4,2.2,1.6,7.2,6.4,10.4c0.8,0.5,7.4,4.7,13.1,1.9c0.5-0.3,2.7-1.4,3.6-3.3
			c1.1-2.2-0.2-4.2-0.6-5c-2.3-4-8.3-4.4-11.7-4.9C114.2,88.3,110.6,88.2,105.6,89.4z"/>
		<path class="st1" d="M112.7,108.6c0.4,2.2,1.5,7,6.3,9.9c0.7,0.5,7,4.4,12.5,1.8c0.4-0.3,2.5-1.3,3.5-3.2c1-2.1-0.1-4-0.5-4.8
			c-2.3-3.9-7.9-4.3-11.1-4.7C121,107.7,117.4,107.7,112.7,108.6z"/>
		<path class="st1" d="M127.3,38.3c1.2,1.8,3.7,6.4,2.1,12.1c-0.3,0.9-2.3,8.4-8.4,10c-0.5,0.1-2.9,0.8-4.9,0
			c-2.3-0.9-2.7-3.3-2.9-4.1c-0.8-4.6,3-8.8,5.5-11.3C120.2,43.3,123,40.8,127.3,38.3z"/>
		<path class="st1" d="M135.4,56.2c1.2,1.8,3.7,6.4,2.1,12.1c-0.3,0.9-2.3,8.4-8.4,10c-0.5,0.1-2.9,0.8-4.9,0
			c-2.3-0.9-2.7-3.3-2.9-4.1c-0.8-4.6,3-8.8,5.5-11.3C128.3,61.3,131.1,58.7,135.4,56.2z"/>
		<path class="st1" d="M143.1,73.8c1.2,1.8,3.7,6.4,2.1,12.1c-0.3,0.9-2.3,8.4-8.4,10c-0.5,0.1-2.9,0.8-4.9,0
			c-2.3-0.9-2.7-3.3-2.9-4.1c-0.8-4.6,3-8.8,5.5-11.3C136.1,78.8,138.9,76.2,143.1,73.8z"/>
		<path class="st1" d="M150.8,91.7c1.2,1.8,3.7,6.4,2.1,12.1c-0.3,0.9-2.3,8.4-8.4,10c-0.5,0.2-2.9,0.8-4.9,0
			c-2.3-0.9-2.7-3.3-2.9-4.1c-0.8-4.6,3-8.8,5.5-11.3C143.7,96.7,146.5,94.3,150.8,91.7z"/>
		<line class="st1" x1="108.2" y1="50.4" x2="145.5" y2="134.3"/>
	</g>
	<g>
		<g>
			<path class="st2" d="M15.7,158.8h4.2V181h12.9v4H15.7V158.8z"/>
			<path class="st2" d="M36.7,171.9c0-1.8,0.3-3.5,1-5.1s1.7-3.1,2.9-4.3s2.6-2.2,4.2-2.9s3.3-1.1,5.2-1.1c1.8,0,3.5,0.4,5.2,1.1
				s3.1,1.7,4.3,2.9s2.2,2.7,2.9,4.3s1,3.3,1,5.1s-0.3,3.6-1,5.2c-0.7,1.6-1.7,3-2.9,4.3c-1.3,1.2-2.7,2.2-4.3,2.9s-3.3,1-5.2,1
				c-1.8,0-3.6-0.3-5.2-1c-1.6-0.7-3-1.6-4.2-2.8s-2.2-2.6-2.9-4.2C37.1,175.5,36.7,173.8,36.7,171.9z M41,171.9
				c0,1.3,0.2,2.5,0.7,3.7c0.5,1.1,1.1,2.1,2,3c0.8,0.9,1.8,1.5,2.9,2c1.1,0.5,2.3,0.7,3.6,0.7s2.5-0.2,3.5-0.7c1.1-0.5,2-1.1,2.8-2
				s1.4-1.8,1.9-3c0.5-1.1,0.7-2.3,0.7-3.6s-0.2-2.5-0.7-3.7c-0.5-1.1-1.1-2.1-1.9-3s-1.8-1.5-2.9-2c-1.1-0.5-2.3-0.7-3.6-0.7
				s-2.5,0.2-3.6,0.7s-2.1,1.2-2.9,2c-0.8,0.9-1.5,1.8-1.9,3C41.3,169.4,41,170.6,41,171.9z"/>
			<path class="st2" d="M66.9,158.9h4.9l6.5,18.6l-0.7-0.3l5-12.9l1.9,5.7l-7.2,16.2L66.9,158.9z M79.7,158.9h4.2l7.2,18.2l-0.8-0.1
				l6-18h4.5l-10.3,27.2L79.7,158.9z"/>
			<path class="st2" d="M136.6,182.9c-0.4,0.3-0.9,0.6-1.7,1s-1.7,0.7-2.7,1s-2.2,0.4-3.5,0.4c-2,0-3.9-0.4-5.5-1.1s-3-1.7-4.1-2.9
				s-2-2.6-2.6-4.2c-0.6-1.6-0.9-3.3-0.9-5.1c0-1.9,0.3-3.8,0.9-5.4c0.6-1.7,1.5-3.1,2.7-4.3s2.5-2.2,4.1-2.8s3.3-1,5.2-1
				c1.6,0,3.1,0.2,4.4,0.7c1.3,0.4,2.4,1,3.3,1.5l-1.7,3.9c-0.7-0.5-1.5-1-2.5-1.4s-2.1-0.7-3.4-0.7c-1.2,0-2.2,0.2-3.3,0.7
				s-2,1.1-2.8,2s-1.4,1.8-1.9,3c-0.5,1.1-0.7,2.4-0.7,3.7s0.2,2.6,0.6,3.8s1,2.2,1.8,3s1.7,1.5,2.8,1.9s2.3,0.7,3.7,0.7
				c1.4,0,2.6-0.2,3.6-0.6c1-0.4,1.8-0.9,2.5-1.4L136.6,182.9z"/>
			<path class="st2" d="M139.4,185l11.6-27.3h0.3l11.6,27.3h-4.8l-8.2-20.7l3-2l-9.4,22.7H139.4z M146.7,175.3h8.9l1.4,3.5h-11.7
				L146.7,175.3z"/>
			<path class="st2" d="M174.7,158.8c1.4,0,2.8,0.2,3.9,0.6c1.2,0.4,2.2,0.9,3.1,1.6c0.9,0.7,1.5,1.6,2,2.6s0.7,2.2,0.7,3.6
				c0,1-0.2,2.1-0.5,3.1s-0.8,2-1.5,2.8s-1.6,1.5-2.8,2s-2.6,0.8-4.2,0.8h-3.8v9.1h-4.2v-26.2L174.7,158.8L174.7,158.8z
				 M175.3,171.8c0.9,0,1.7-0.1,2.3-0.4s1.1-0.7,1.5-1.1c0.4-0.5,0.6-0.9,0.8-1.5c0.2-0.5,0.2-1,0.2-1.5c0-0.4-0.1-0.9-0.2-1.4
				c-0.1-0.5-0.4-1-0.7-1.5s-0.8-0.9-1.4-1.2s-1.4-0.5-2.3-0.5h-3.9v9L175.3,171.8L175.3,171.8z M179.8,174.4l6.7,10.6h-4.9
				l-6.8-10.5L179.8,174.4z"/>
			<path class="st2" d="M198.6,158.8c2.7,0,4.8,0.5,6.3,1.6s2.3,2.7,2.3,5c0,1.5-0.3,2.8-1,3.8s-1.7,1.8-2.9,2.4
				c-1.2,0.6-2.6,0.9-4.3,0.9l-0.6-2.2c1.9,0,3.6,0.3,5.1,0.9s2.7,1.4,3.6,2.5c0.9,1.1,1.3,2.3,1.3,3.8c0,1.3-0.3,2.5-0.8,3.4
				s-1.2,1.7-2,2.3s-1.8,1-2.9,1.3c-1.1,0.3-2.2,0.4-3.3,0.4h-8.2v-26.2h7.4V158.8z M199.3,170c1.2,0,2.2-0.4,2.8-1.1
				s0.9-1.6,0.9-2.6c0-1.2-0.4-2-1.1-2.6c-0.7-0.6-1.8-0.8-3-0.8h-3.1v7.1L199.3,170L199.3,170z M199.4,181.1c0.9,0,1.7-0.1,2.4-0.4
				c0.7-0.3,1.3-0.7,1.7-1.2s0.6-1.2,0.6-2c0-0.9-0.3-1.6-0.8-2.1s-1.1-0.9-1.9-1.1c-0.8-0.2-1.6-0.3-2.4-0.3h-3.5v7.1H199.4z"/>
		</g>
	</g>
</g>
</svg>
