<?xml version="1.0" encoding="utf-8"?>
<!-- Generator: Adobe Illustrator 26.5.0, SVG Export Plug-In . SVG Version: 6.00 Build 0)  -->
<svg version="1.1" id="Layer_1" xmlns="http://www.w3.org/2000/svg" xmlns:xlink="http://www.w3.org/1999/xlink" x="0px" y="0px"
	 viewBox="0 0 288 288" style="enable-background:new 0 0 288 288;" xml:space="preserve">
<style type="text/css">
	.st0{fill:#FFFFFF;}
	.st1{fill:#C92F0D;}
</style>
<g>
	<g>
		<circle class="st0" cx="144.8" cy="147.2" r="108"/>
	</g>
	<g>
		<path class="st1" d="M203.5,98.5c-10.5-11.9-24.4-15.2-40.2-9.4l2.5,6.9l-2.5-6.9h0c-1.4,0.5-2.9,1.1-4.3,1.8
			c-13.5,6.1-19.6,18-24.1,26.6c-1.3,2.6-3.1,6.1-4.1,7c-2.8,1.3-5.4,2.3-8.2,3.4c-7.2,2.8-14.7,5.7-24.4,13.2
			c-13.3,10.3-19.9,23.3-20,39.8c-0.1,8.9,3.7,16.6,10.6,21.5c6.9,4.9,19.7,9.2,41.7,1.7c0.3-0.1,0.7-0.2,1-0.3
			c19.2-7,27.7-21.4,32.2-29.1c0.9-1.6,2-3.3,2.5-3.9c1.5-1.7,5.4-3.8,10.3-6.4c4.8-2.5,10.7-5.7,17.8-10.3c9.4-6,15.4-15.4,17-26.4
			C212.6,116.7,209.7,105.6,203.5,98.5z M190.2,147.9c-15.5,9.9-25.3,13.1-29.6,18c-4.3,4.8-10.1,23.2-31.7,31
			c-0.3,0.1-0.6,0.2-0.9,0.3c-28.2,9.7-42.7-1.2-42.6-16.2c0.1-13.3,5-24.6,17.1-34c12.6-9.7,21-11,31.5-15.9
			c7-3.3,9.7-25.2,27.9-33.5c1.3-0.6,2.6-1.1,3.8-1.6c15.9-5.8,25.9,0.2,32.3,7.4C206.5,113,208.3,136.3,190.2,147.9z"/>
		<path class="st1" d="M184.1,114.3c-0.6,1.1-0.2,2.5,0.9,3.1c1.1,0.6,2.5,0.2,3.1-0.9c0.7-1.2,1.2-2.2,1.6-3.1
			c0.4-0.8,0.7-1.5,0.8-1.9c0.5-1.2-0.1-2.5-1.3-3c-1.2-0.5-2.5,0.1-3,1.3c-0.2,0.4-0.4,0.9-0.7,1.7
			C185.2,112.3,184.7,113.2,184.1,114.3z"/>
		<path class="st1" d="M130.9,166c0.8,1,2.3,1.1,3.2,0.2c2.8-2.4,5.6-4.9,8.3-7.4c0.9-0.9,1-2.3,0.2-3.2c-0.9-0.9-2.3-1-3.3-0.2
			c-2.7,2.4-5.5,4.9-8.2,7.3C130.2,163.6,130.1,165,130.9,166z"/>
		<path class="st1" d="M157.5,139.1c-2.6,2.2-5.4,4.7-8.4,7.4c-0.9,0.9-1,2.3-0.2,3.2c0.9,0.9,2.3,1,3.2,0.2
			c2.9-2.7,5.7-5.1,8.2-7.3c1-0.8,1.1-2.3,0.3-3.2C160,138.4,158.5,138.3,157.5,139.1z"/>
		<path class="st1" d="M121,171.2c-3,2.4-5.9,4.6-8.7,6.5c-1.1,0.7-1.3,2.1-0.6,3.2c0.7,1.1,2.1,1.3,3.2,0.6c2.9-2,6-4.2,9-6.7
			c1-0.8,1.2-2.2,0.4-3.2C123.5,170.6,122,170.4,121,171.2z"/>
		<path class="st1" d="M176.5,124.3c-2.2,2.3-4.9,4.6-8.1,6.8c-1,0.7-1.3,2.2-0.6,3.2c0.7,1,2.1,1.3,3.2,0.6
			c3.5-2.4,6.4-4.9,8.8-7.4c0.9-0.9,0.9-2.4,0-3.3C178.9,123.4,177.4,123.4,176.5,124.3z"/>
		<path class="st1" d="M101.2,183.7l-0.1,0.1c-1.6,0.6-3.1,0.9-4.4,1.1c-1.3,0.1-2.2,1.2-2.1,2.5c0.1,1.3,1.2,2.2,2.5,2.1
			c1.8-0.2,3.6-0.6,5.5-1.3l0.2-0.1c1.2-0.4,1.8-1.8,1.4-3C103.7,183.9,102.4,183.3,101.2,183.7z"/>
		<path class="st1" d="M134.7,182c-0.6,0.5-1.2,0.9-1.8,1.4c-1.6,1.1-3.2,2.1-4.8,3c-1,0.5-1.3,1.7-0.8,2.7c0.5,1,1.7,1.3,2.7,0.8
			c1.7-0.9,3.5-2,5.2-3.2c0.7-0.5,1.4-1,2.1-1.5c0.9-0.7,1-1.9,0.3-2.8C136.8,181.4,135.5,181.3,134.7,182z"/>
		<path class="st1" d="M118.7,190.3c-3,0.9-5.7,1.5-7.9,1.9c-1.1,0.2-1.8,1.2-1.6,2.3c0.2,1.1,1.2,1.8,2.3,1.6c2.3-0.4,5.2-1,8.4-2
			c1-0.3,1.6-1.4,1.3-2.5C120.9,190.6,119.8,190,118.7,190.3z"/>
		<path class="st1" d="M149.1,167.5c-0.9-0.6-2.2-0.3-2.7,0.6c-1.4,2.2-2.9,4.5-4.7,6.7c-0.7,0.9-0.5,2.1,0.3,2.8
			c0.9,0.7,2.1,0.5,2.8-0.3c1.9-2.3,3.5-4.7,4.9-7C150.3,169.3,150,168.1,149.1,167.5z"/>
		<path class="st1" d="M157.6,152.3c-1.7,1.2-3.2,2.4-4.2,3.8c-0.6,0.9-1.2,1.9-1.9,3c-0.6,0.9-0.2,2.2,0.7,2.7
			c1,0.6,2.2,0.2,2.7-0.7c0.6-1.1,1.2-2,1.7-2.7c0.6-0.8,1.7-1.8,3.2-2.8c0.9-0.6,1.1-1.9,0.5-2.8
			C159.8,151.9,158.5,151.7,157.6,152.3z"/>
		<path class="st1" d="M188.4,132.4L188.4,132.4c-1.4,2-3.1,3.8-5.4,5.4l0,0c-0.9,0.6-1.1,1.9-0.5,2.8c0.6,0.9,1.9,1.1,2.8,0.5l0,0
			c2.6-1.8,4.7-4.1,6.3-6.4c0.6-0.9,0.4-2.1-0.5-2.8C190.3,131.3,189.1,131.5,188.4,132.4z"/>
		<path class="st1" d="M195.6,113.9c-1.1,0-2,0.9-2,2c0,0.1,0,3.5-1.2,7.7c-0.3,1.1,0.3,2.2,1.4,2.4c1.1,0.3,2.1-0.3,2.4-1.4
			c1.3-4.9,1.3-8.7,1.3-8.8C197.6,114.7,196.7,113.8,195.6,113.9z"/>
		<path class="st1" d="M174.3,143.2c-2.5,1.4-5,2.7-7.4,3.9c-1,0.5-1.4,1.7-0.9,2.7c0.5,1,1.7,1.4,2.7,0.9c2.3-1.2,4.9-2.5,7.5-3.9
			c1-0.5,1.3-1.7,0.8-2.7C176.5,143,175.3,142.7,174.3,143.2z"/>
		<path class="st1" d="M166.2,107.4c-0.9-0.9-2.4-0.9-3.3,0c-2.6,2.7-4.8,5.6-6.7,8.6c-0.7,1.1-0.4,2.5,0.7,3.2
			c1.1,0.7,2.5,0.4,3.2-0.7c1.8-2.8,3.8-5.5,6.1-7.8C167.1,109.8,167.1,108.3,166.2,107.4z"/>
		<path class="st1" d="M175.7,104c0.7-0.3,1.4-0.6,2.2-0.9c1.9-0.7,3.9-1.2,6.1-1.6c1.3-0.2,2.1-1.4,1.9-2.6
			c-0.2-1.3-1.4-2.1-2.6-1.9c-2.5,0.4-4.8,1-7,1.8c-0.9,0.3-1.7,0.7-2.5,1c-1.2,0.5-1.7,1.9-1.1,3C173.2,104,174.6,104.5,175.7,104z
			"/>
		<path class="st1" d="M148.9,138.8c1.9-2.5,3.5-5.8,5.3-9.5c0.6-1.1,0.1-2.5-1-3.1c-1.1-0.6-2.5-0.1-3.1,1
			c-1.8,3.6-3.4,6.8-4.9,8.8c-0.8,1-0.5,2.5,0.5,3.2C146.7,140,148.2,139.8,148.9,138.8z"/>
		<path class="st1" d="M100.3,171c0.8-0.9,0.8-2.4-0.2-3.2c-0.9-0.9-2.4-0.8-3.2,0.2c-2.8,3.1-5,6.2-6.1,9.5
			c-0.4,1.2,0.2,2.5,1.4,2.9c1.2,0.4,2.5-0.2,2.9-1.4C95.9,176.6,97.8,173.8,100.3,171z"/>
		<path class="st1" d="M128.1,150.3c3.3-1.9,6.5-3.5,9.1-4.8c1.1-0.5,1.6-1.9,1.1-3.1c-0.5-1.1-1.9-1.6-3.1-1.1
			c-2.8,1.3-6,3-9.4,4.9c-1.1,0.6-1.5,2-0.9,3.1C125.6,150.5,127,150.9,128.1,150.3z"/>
		<path class="st1" d="M117.6,156.8c1.1-0.7,1.3-2.1,0.6-3.2c-0.7-1.1-2.1-1.3-3.2-0.6c-3,2-5.9,4.1-8.6,6.3c-1,0.8-1.2,2.2-0.4,3.2
			c0.8,1,2.2,1.2,3.2,0.4C111.9,160.7,114.7,158.7,117.6,156.8z"/>
	</g>
</g>
</svg>
