<?xml version="1.0" encoding="utf-8"?>
<!-- Generator: Adobe Illustrator 26.5.0, SVG Export Plug-In . SVG Version: 6.00 Build 0)  -->
<svg version="1.1" id="Layer_1" xmlns="http://www.w3.org/2000/svg" xmlns:xlink="http://www.w3.org/1999/xlink" x="0px" y="0px"
	 viewBox="0 0 216 216" style="enable-background:new 0 0 216 216;" xml:space="preserve">
<style type="text/css">
	.st0{fill:#FFFFFF;}
</style>
<g>
	<path class="st0" d="M126,118.8c-46.9-1.7-50-1.6-57.2-3.1c0,0-14.5-3.4-30.4-12c-8.5-4.6-12.9-12.9-12.2-23.3
		c0.5-6.5,0.5-12.8,0-19.3c-0.5-8.9,3.4-15.6,11.1-18.6c9.8-3.8,20-6.8,30.4-8.2c18.2-2.4,36.1-0.9,53.2,6.8
		c7.8,3.5,14.2,8.4,16.1,17.9c0.5,2.2,5.6,4.5,8.7,4.8c8.8,0.6,17.7-0.4,26.5,0.5c4.8,0.4,10,2.3,13.9,5.1c2.7,2,4.6,6.5,5,10
		c0.7,7.4,0,15,0.2,22.6c0.2,6.7-2.8,11.4-8.5,13.4c-4.9,1.8-10.3,3.1-15.4,3.2c-13.3,0.5-26.5,0.1-39.8,0.1
		C127.5,118.8,126,118.8,126,118.8z M186.2,91.4c-10.9,0.7-21.2,2-31.7,2.1c-16.8,0.4-33.7,0-50.4,0.1c-25.6,0.2-50.7-1.8-71.5-19.2
		c-3.5,14.2,3.3,22.7,14.6,28.8c12.4,6.6,26,9.9,40,10c27.2,0.5,54.4,0.4,81.7,0.1c4.3,0,8.8-1.3,12.6-3.2c2.1-1,4.1-4.1,4.5-6.5
		C186.7,99.3,186.2,94.6,186.2,91.4z M126.2,88.6c0,0,0.5,0,1,0c0.4,0,0.6-0.1,0.7-0.1c3.7-0.6,36.5,0,36.5,0
		c7.1,0.1,10.3-0.4,14.3-2c3.1-1.2,7.1-5.2,7-7.8c-0.1-2.7-4.1-6.8-7.2-7.7c-5.7-1.7-12.1-1.7-18.2-2.1c-6.6-0.4-13.3,0.4-19.8-0.9
		c-3.3-0.6-8.1-4.1-8.4-6.8c-1.1-9-6.7-13.4-13.9-16c-24.3-8.7-48.9-9.2-73.2-0.6C28.8,49.9,27.2,63.1,40.6,74
		c10.3,8.2,21.1,10.9,32.8,12.7C94.9,89.9,125.1,88.5,126.2,88.6z"/>
	<path class="st0" d="M174.6,82.7c-1.5,0.2-3.8,0.7-6.7,1.1c-13.1,2.1-30.6,1.2-89.3-1.5c-9.4-0.4-18.7-4.6-27.8-7.7
		c-3.1-1-5.9-3.2-8.3-5.4c-8.8-7.8-7.7-16.8,3.4-20.1C56.7,45.9,68.3,44,79.5,44c12.2,0.1,24.4,2.7,36.4,5.1
		c5.9,1.2,10.3,5,10.9,12.4c0.5,7.2,6.2,11.4,15.3,11.8c8.5,0.5,17.2-0.2,25.8,0.2c4.6,0.2,9.3,2,13.9,3.1c0.7,0.7,0.9,1.2,0.9,1.6
		C182.6,80.2,179.4,81.9,174.6,82.7z M102.6,67.3c-0.6-1.5-1.8-3.5-4-5c-4.5-2.9-9-0.1-12.7-2.7c-1.6-1.1-3.4-3.5-3.5-9.4
		c-3.4,1.7-7.4,3.5-12,5c-6.1,2.1-11.7,3.3-16.6,4"/>
	<path class="st0" d="M125.1,87"/>
</g>
<g>
	<g>
		<path class="st0" d="M51.8,173.4c-0.9-0.5-1.9-0.9-3-1.3s-2.1-0.5-3-0.5c-1.3,0-2.3,0.3-3.1,0.9c-0.7,0.6-1.1,1.4-1.1,2.4
			c0,0.7,0.3,1.3,0.8,1.9c0.5,0.5,1.2,1,2,1.4c0.8,0.4,1.7,0.8,2.6,1.1c0.8,0.3,1.6,0.6,2.3,1c0.8,0.4,1.5,0.9,2.1,1.4
			c0.6,0.6,1.1,1.3,1.5,2.2c0.4,0.9,0.6,1.9,0.6,3.2c0,1.4-0.3,2.6-1,3.8s-1.7,2-3,2.7c-1.3,0.7-2.9,1-4.7,1c-1.1,0-2.2-0.1-3.2-0.4
			c-1-0.2-2-0.6-3-1s-1.8-0.9-2.6-1.5l1.9-3.2c0.6,0.4,1.2,0.8,2,1.2c0.7,0.4,1.5,0.6,2.3,0.9c0.8,0.2,1.5,0.3,2.2,0.3
			c0.7,0,1.5-0.1,2.2-0.4c0.8-0.3,1.4-0.7,1.9-1.2c0.5-0.6,0.7-1.3,0.7-2.2c0-0.7-0.2-1.4-0.6-1.9c-0.4-0.5-1-1-1.7-1.4
			c-0.7-0.4-1.4-0.8-2.2-1.1c-0.8-0.3-1.6-0.7-2.5-1c-0.9-0.4-1.7-0.9-2.4-1.4c-0.7-0.6-1.3-1.3-1.7-2.1c-0.4-0.8-0.6-1.8-0.6-3
			c0-1.4,0.3-2.7,1-3.8c0.6-1.1,1.6-1.9,2.8-2.5c1.2-0.6,2.6-1,4.1-1c1.8,0,3.4,0.2,4.7,0.7c1.3,0.4,2.5,1,3.5,1.6L51.8,173.4z"/>
		<path class="st0" d="M56.2,194.2l11.6-27.3h0.3l11.6,27.3h-4.8l-8.2-20.7l3-2l-9.4,22.7H56.2z M63.6,184.5h8.9l1.4,3.5H62.3
			L63.6,184.5z"/>
		<path class="st0" d="M86.9,168l8.2,20.6l-2.4-0.5l7.7-20.1h4.9l-11.7,27.4L81.9,168H86.9z"/>
		<path class="st0" d="M108.7,181.1c0-1.8,0.3-3.5,1-5.1c0.7-1.6,1.7-3.1,2.9-4.3s2.6-2.2,4.2-2.9c1.6-0.7,3.3-1.1,5.2-1.1
			c1.8,0,3.5,0.4,5.2,1.1c1.6,0.7,3.1,1.7,4.3,2.9s2.2,2.7,2.9,4.3s1,3.3,1,5.1c0,1.8-0.3,3.6-1,5.2c-0.7,1.6-1.7,3-2.9,4.3
			s-2.7,2.2-4.3,2.9c-1.6,0.7-3.3,1-5.2,1s-3.6-0.3-5.2-1c-1.6-0.7-3-1.6-4.2-2.8s-2.2-2.6-2.9-4.2C109,184.8,108.7,183,108.7,181.1
			z M113,181.1c0,1.3,0.2,2.5,0.7,3.7c0.5,1.1,1.1,2.1,2,3s1.8,1.5,2.9,2s2.3,0.7,3.6,0.7c1.3,0,2.5-0.2,3.5-0.7
			c1.1-0.5,2-1.1,2.8-2c0.8-0.9,1.4-1.8,1.9-3c0.5-1.1,0.7-2.3,0.7-3.6c0-1.3-0.2-2.5-0.7-3.7c-0.5-1.1-1.1-2.1-1.9-3
			c-0.8-0.9-1.8-1.5-2.9-2c-1.1-0.5-2.3-0.7-3.6-0.7s-2.5,0.2-3.6,0.7c-1.1,0.5-2.1,1.2-2.9,2s-1.5,1.8-1.9,3
			C113.2,178.6,113,179.8,113,181.1z"/>
		<path class="st0" d="M148.5,168c1.4,0,2.8,0.2,3.9,0.6c1.2,0.4,2.2,0.9,3.1,1.6s1.5,1.6,2,2.6c0.5,1,0.7,2.2,0.7,3.6
			c0,1-0.2,2.1-0.5,3.1c-0.3,1-0.8,2-1.5,2.8c-0.7,0.8-1.6,1.5-2.8,2c-1.2,0.5-2.6,0.8-4.2,0.8h-3.8v9.1h-4.2V168H148.5z M149,181
			c0.9,0,1.7-0.1,2.3-0.4s1.1-0.7,1.5-1.1c0.4-0.5,0.6-0.9,0.8-1.5c0.2-0.5,0.2-1,0.2-1.5c0-0.4-0.1-0.9-0.2-1.4
			c-0.1-0.5-0.4-1-0.7-1.5c-0.3-0.5-0.8-0.9-1.4-1.2c-0.6-0.3-1.4-0.4-2.3-0.4h-3.9v9H149z M153.6,183.6l6.7,10.6h-4.9l-6.8-10.5
			L153.6,183.6z"/>
		<path class="st0" d="M172.1,185.7l-9.7-17.7h5.1l7.4,14.1l-1.3,0.1L181,168h5.1l-9.8,17.7v8.5h-4.2V185.7z"/>
	</g>
</g>
</svg>
