<?xml version="1.0" encoding="utf-8"?>
<!-- Generator: Adobe Illustrator 26.5.0, SVG Export Plug-In . SVG Version: 6.00 Build 0)  -->
<svg version="1.1" id="Layer_1" xmlns="http://www.w3.org/2000/svg" xmlns:xlink="http://www.w3.org/1999/xlink" x="0px" y="0px"
	 viewBox="0 0 216 216" style="enable-background:new 0 0 216 216;" xml:space="preserve">
<style type="text/css">
	.st0{fill:#FFFFFF;}
</style>
<g>
	<g>
		<g>
			<path class="st0" d="M37.9,72.3c10.3-20.7,20-40.3,29.4-59.9c2.1-4.5,4.4-4.1,7.8-2c12.5,7.4,25.1,14.7,37.8,21.6
				c2.4,1.2,5.5,0.5,8.5,0.6c1.1,0,2.8-0.3,3.5,0.3c5.5,5.4,16.6,3.3,17.2,15.5c0,1.1,2.8,2.1,4.3,3c9.3,5.4,18.4,10.8,27.9,15.9
				c4.2,2.3,4.7,4.5,2.5,8.9c-8.9,17.6-17.6,35.3-26.1,53.2c-2.5,5.3-5,5.7-9.4,3c-7.3-4.5-14.8-9-22.6-12.9
				c-3.9-2.1-7.3-7.4-13-2.3c-2.5,2.3-18.2-10.5-19.3-14.3c-0.6-1.8-2.5-3.6-4.2-4.7c-12.3-7.2-24.7-14.3-37-21.5
				C42.8,75.5,40.7,74.1,37.9,72.3z M172,72.8c-10.5-6.2-20.5-11.9-30.4-17.6c-9.2-5.1-16.9-0.6-15.9,10.4
				c1.1,11.9-2.8,19.5-12.5,24.3c-1.1,0.6-2.2,1.4-3.2,2.3c-3.7,3.8-3.1,13.5,1.4,16.2c11,6.5,22,12.8,33.6,19.4
				C154.1,109.4,163,91.4,172,72.8z M59.8,40.2c7.2,4.1,13.4,7.5,20,11.3c4.2-8.7,8-16.5,12.1-24.8c-6.9-4.1-13.2-7.5-19.8-11.4
				C67.9,23.7,64.1,31.5,59.8,40.2z M104.5,65.7c4-8.3,8-16.4,12.2-24.9c-6.9-3.9-13.2-7.5-20-11.4c-4.2,8.6-8,16.7-12.1,24.9
				C91.6,58.4,97.7,61.8,104.5,65.7z M89.6,95.9c4.3-8.6,8-16.4,12.2-24.8c-6.5-3.8-12.9-7.5-19.8-11.6c-4.2,8.6-8,16.5-12.2,24.9
				C76.5,88.3,82.6,91.7,89.6,95.9z M45.1,70.2c6.9,4.1,13.2,7.7,19.8,11.6c4.2-8.6,8-16.7,12.2-25.1c-7.1-3.9-13.3-7.5-20-11.3
				C53,54,49.3,61.8,45.1,70.2z M101.3,108.8c0.8-0.8,1.1-0.9,1.2-1.1c0.1-0.8,0.6-1.7,0.4-2.4c-2.4-11.7,2.9-18.6,11.9-23.9
				c2.4-1.4,5-5.9,4.7-8.6c-1.4-12.5,2.2-21.5,13-26.6c0.3-0.2,0.3-0.9,0.6-2.1c-2.9-1.7-5.8-3.3-9.4-5.3
				C113,60.4,102.6,81.6,92,103.4C95.7,105.7,98.6,107.3,101.3,108.8z"/>
		</g>
	</g>
	<g>
		<g>
			<path class="st0" d="M60.7,175.2c-0.9-0.5-1.9-0.9-3-1.3c-1.1-0.3-2.1-0.5-3-0.5c-1.3,0-2.3,0.3-3.1,0.9
				c-0.7,0.6-1.1,1.4-1.1,2.4c0,0.7,0.3,1.3,0.8,1.9c0.5,0.5,1.2,1,2,1.4c0.8,0.4,1.7,0.8,2.6,1.1c0.8,0.3,1.6,0.6,2.3,1
				c0.8,0.4,1.5,0.9,2.1,1.4c0.6,0.6,1.1,1.3,1.5,2.2s0.6,1.9,0.6,3.1c0,1.4-0.3,2.6-1,3.8c-0.7,1.1-1.7,2-3,2.7
				c-1.3,0.7-2.9,1-4.7,1c-1.1,0-2.2-0.1-3.2-0.4c-1-0.2-2-0.6-3-1c-0.9-0.4-1.8-0.9-2.6-1.5l1.9-3.2c0.6,0.4,1.2,0.8,2,1.2
				c0.7,0.4,1.5,0.6,2.3,0.9c0.8,0.2,1.5,0.3,2.2,0.3c0.7,0,1.5-0.1,2.2-0.4c0.8-0.3,1.4-0.7,1.9-1.2s0.7-1.3,0.7-2.2
				c0-0.7-0.2-1.4-0.6-1.9s-1-1-1.7-1.4c-0.7-0.4-1.4-0.8-2.2-1.1c-0.8-0.3-1.6-0.7-2.5-1c-0.9-0.4-1.7-0.9-2.4-1.4
				c-0.7-0.6-1.3-1.3-1.7-2.1c-0.4-0.8-0.6-1.8-0.6-3c0-1.4,0.3-2.7,1-3.8c0.6-1.1,1.6-1.9,2.8-2.5c1.2-0.6,2.6-1,4.1-1
				c1.8,0,3.4,0.2,4.7,0.7c1.3,0.4,2.5,1,3.5,1.6L60.7,175.2z"/>
			<path class="st0" d="M65.6,169.9h4.9l6.5,18.6l-0.7-0.3l5-12.9l1.9,5.7l-7.2,16.2L65.6,169.9z M78.4,169.9h4.2l7.2,18.2L89,188
				l6-18h4.5l-10.3,27.2L78.4,169.9z"/>
			<path class="st0" d="M104.4,169.8h17.4v4h-13.2v7h11.7v4h-11.7v7.1h13.7v4h-17.9V169.8z"/>
			<path class="st0" d="M128.1,169.8h17.4v4h-13.2v7H144v4h-11.7v7.1H146v4h-17.9V169.8z"/>
			<path class="st0" d="M149.9,169.8h17.5v4h-6.8V196h-4.2v-22.2h-6.6V169.8z"/>
		</g>
	</g>
</g>
</svg>
