<?xml version="1.0" encoding="utf-8"?>
<!-- Generator: Adobe Illustrator 26.5.0, SVG Export Plug-In . SVG Version: 6.00 Build 0)  -->
<svg version="1.1" id="Layer_1" xmlns="http://www.w3.org/2000/svg" xmlns:xlink="http://www.w3.org/1999/xlink" x="0px" y="0px"
	 viewBox="0 0 612 792" style="enable-background:new 0 0 612 792;" xml:space="preserve">
<style type="text/css">
	.st0{opacity:0.76;fill-rule:evenodd;clip-rule:evenodd;fill:#C83327;}
	.st1{fill:#FFFFFF;}
</style>
<g>
	<path class="st0" d="M306-49.5C554-49.5,755,150,755,396S554,841.5,306,841.5S-143,642-143,396S58-49.5,306-49.5z"/>
	<g>
		<g>
			<path class="st1" d="M20.2,279.4C62,201.5,101.6,128.1,140,54.1c8.5-16.9,18.1-15.2,31.6-7.3c50.8,27.7,102.2,55.3,154.2,81.3
				c9.6,4.5,22.6,1.7,34.4,2.3c4.5,0,11.3-1.1,14.1,1.1c22.6,20.3,67.8,12.4,70,58.2c0,4,11.3,7.9,17.5,11.3
				c37.8,20.3,75.1,40.7,113.5,59.9c16.9,8.5,19.2,16.9,10.2,33.3c-36.1,66.1-71.7,132.7-106.2,199.9
				c-10.2,19.8-20.3,21.5-38.4,11.3c-29.9-16.9-60.4-33.9-92.1-48.6c-15.8-7.9-29.9-27.7-53.1-8.5c-10.2,8.5-74-39.5-78.5-53.7
				c-2.3-6.8-10.2-13.6-16.9-17.5C150.1,350,99.9,323.5,49.6,296.4C40,291.3,31.5,286.2,20.2,279.4z M566.3,281.1
				c-42.9-23.2-83.6-44.6-123.7-66.1c-37.3-19.2-68.9-2.3-64.9,39c4.5,44.6-11.3,73.4-50.8,91.5c-4.5,2.3-9,5.1-13,8.5
				c-15.2,14.1-12.4,50.8,5.6,61c44.6,24.3,89.8,48,136.7,72.9C493.5,418.9,529.6,351.2,566.3,281.1z M109.5,158.6
				c29.4,15.2,54.8,28.2,81.3,42.4c16.9-32.8,32.8-62.1,49.1-93.2c-28.2-15.2-53.7-28.2-80.8-42.9C142.2,96.5,127,125.8,109.5,158.6
				z M291.3,254.6c16.4-31.1,32.8-61.6,49.7-93.7c-28.2-14.7-53.7-28.2-81.3-42.9c-16.9,32.2-32.8,62.7-49.1,93.7
				C238.8,226.9,263.6,239.9,291.3,254.6z M230.9,368.1c17.5-32.2,32.8-61.6,49.7-93.2c-26.5-14.1-52.5-28.2-80.8-43.5
				c-16.9,32.2-32.8,62.1-49.7,93.7C177.2,339.3,202.1,352.3,230.9,368.1z M49.6,271.5c28.2,15.2,53.7,28.8,80.8,43.5
				c16.9-32.2,32.8-62.7,49.7-94.3c-28.8-14.7-54.2-28.2-81.3-42.4C81.8,210.5,66.5,239.9,49.6,271.5z M278.3,416.7
				c3.4-2.8,4.5-3.4,5.1-4c0.6-2.8,2.3-6.2,1.7-9c-9.6-44,11.9-70,48.6-89.8c9.6-5.1,20.3-22,19.2-32.2c-5.6-46.9,9-80.8,53.1-100
				c1.1-0.6,1.1-3.4,2.3-7.9c-11.9-6.2-23.7-12.4-38.4-19.8c-43.5,81.3-85.8,161-129.3,242.8C255.7,404.8,267.6,411,278.3,416.7z"/>
		</g>
		<g>
			<g>
				<path class="st1" d="M147.9,580.5c-5.1-2.8-10.7-5.1-16.9-7.3c-6.2-1.7-11.9-2.8-16.9-2.8c-7.3,0-13,1.7-17.5,5.1
					c-4,3.4-6.2,7.9-6.2,13.6c0,4,1.7,7.3,4.5,10.7c2.8,2.8,6.8,5.6,11.3,7.9c4.5,2.3,9.6,4.5,14.7,6.2c4.5,1.7,9,3.4,13,5.6
					c4.5,2.3,8.5,5.1,11.9,7.9c3.4,3.4,6.2,7.3,8.5,12.4s3.4,10.7,3.4,17.5c0,7.9-1.7,14.7-5.6,21.5s-9.6,11.3-16.9,15.2
					c-7.3,4-16.4,5.6-26.5,5.6c-6.2,0-12.4-0.6-18.1-2.3c-5.6-1.1-11.3-3.4-16.9-5.6c-5.1-2.3-10.2-5.1-14.7-8.5l10.7-18.1
					c3.4,2.3,6.8,4.5,11.3,6.8c4,2.3,8.5,3.4,13,5.1c4.5,1.1,8.5,1.7,12.4,1.7s8.5-0.6,12.4-2.3c4.5-1.7,7.9-4,10.7-6.8
					c2.8-2.8,4-7.3,4-12.4c0-4-1.1-7.9-3.4-10.7c-2.3-2.8-5.6-5.6-9.6-7.9c-4-2.3-7.9-4.5-12.4-6.2c-4.5-1.7-9-4-14.1-5.6
					c-5.1-2.3-9.6-5.1-13.6-7.9s-7.3-7.3-9.6-11.9c-2.3-4.5-3.4-10.2-3.4-16.9c0-7.9,1.7-15.2,5.6-21.5c3.4-6.2,9-10.7,15.8-14.1
					c6.8-3.4,14.7-5.6,23.2-5.6c10.2,0,19.2,1.1,26.5,4c7.3,2.3,14.1,5.6,19.8,9L147.9,580.5z"/>
				<path class="st1" d="M241.6,612.1l22.6,52.5h-4.5l20.3-52.5h22.6l-39,90.9L236,644.8L210.6,703L171,612.1h22l24.3,55.3l-7.9-1.1
					l18.1-41.2l-5.6-13H241.6z"/>
				<path class="st1" d="M362.5,700.2c-10.2,0-18.6-1.7-26-5.6c-7.3-4-13-9.6-16.4-16.4c-4-6.8-5.6-14.7-5.6-23.7
					c0-8.5,2.3-16.4,6.8-23.2c4.5-6.8,10.2-12.4,17.5-16.4c7.3-4,15.8-6.2,24.3-6.2c11.9,0,21.5,3.4,29.4,10.2
					c7.9,6.8,13,16.4,15.2,28.8l-69.5,23.2l-5.1-13l53.7-19.2l-4.5,2.8c-1.7-4-4-7.9-7.3-10.7c-3.4-2.8-7.9-4.5-14.1-4.5
					c-4.5,0-9,1.1-12.4,3.4c-3.4,2.3-6.8,5.6-8.5,9.6c-2.3,4-3.4,8.5-3.4,14.1c0,5.6,1.1,10.7,3.4,14.7c2.3,4,5.6,7.3,9.6,9.6
					S358,681,363,681c3.4,0,6.8-0.6,10.2-1.7c3.4-1.1,6.2-2.8,9-5.1l10.2,16.9c-4.5,2.8-9.6,5.1-14.7,6.8
					C372.6,699.6,367.6,700.2,362.5,700.2z"/>
				<path class="st1" d="M470.9,700.2c-10.2,0-18.6-1.7-26-5.6c-7.3-4-13-9.6-16.4-16.4c-4-6.8-5.6-14.7-5.6-23.7
					c0-8.5,2.3-16.4,6.8-23.2c4.5-6.8,10.2-12.4,17.5-16.4c7.3-4,15.8-6.2,24.3-6.2c11.9,0,21.5,3.4,29.4,10.2
					c7.9,6.8,13,16.4,15.2,28.8l-69.5,23.2l-5.1-13l53.7-19.2l-4.5,2.8c-1.7-4-4-7.9-7.3-10.7c-3.4-2.8-7.9-4.5-14.1-4.5
					c-4.5,0-9,1.1-12.4,3.4c-3.4,2.3-6.8,5.6-8.5,9.6c-2.3,4-3.4,8.5-3.4,14.1c0,5.6,1.1,10.7,3.4,14.7c2.3,4,5.6,7.3,9.6,9.6
					c4,2.3,8.5,3.4,13.6,3.4c3.4,0,6.8-0.6,10.2-1.7c3.4-1.1,6.2-2.8,9-5.1l10.2,16.9c-4.5,2.8-9.6,5.1-14.7,6.8
					C481.1,699.6,476,700.2,470.9,700.2z"/>
				<path class="st1" d="M546.6,574.2h22.6v37.8h22.6v17.5h-22.6v68.3h-22.6v-68.3h-14.7v-17.5h14.7V574.2z"/>
			</g>
		</g>
	</g>
</g>
</svg>
