<?xml version="1.0" encoding="utf-8"?>
<!-- Generator: Adobe Illustrator 26.5.0, SVG Export Plug-In . SVG Version: 6.00 Build 0)  -->
<svg version="1.1" id="Layer_1" xmlns="http://www.w3.org/2000/svg" xmlns:xlink="http://www.w3.org/1999/xlink" x="0px" y="0px"
	 viewBox="0 0 216 216" style="enable-background:new 0 0 216 216;" xml:space="preserve">
<style type="text/css">
	.st0{fill:#FFFFFF;}
</style>
<g>
	<g>
		<path class="st0" d="M102.7,127.9c-0.3-0.6-0.4-1-0.5-1.4c-9.2-28.9-22.4-56-40.4-80.6c-2.2-2.9-4.3-5.9-6.5-8.8
			c-0.9-1.3-2.2-1.7-3.6-1.3c-1.3,0.4-2.3,1.3-2.3,2.7c0,1.1,0.5,2.4,1.1,3.2c19.1,25,34.2,52.4,43.9,82.4c1.7,5,3.2,10.1,4.7,15
			c0.9,2.7,3.7,3.7,5.5,1.8c0.6-0.6,1-1.5,1.3-2.4c7.4-20.8,15.6-41.2,26-60.6c0.8-1.4,1.4-1.7,2.9-1.3c6.9,2.2,13.6,2.2,20.3-1.1
			c6.6-3.4,10.6-9.1,13.3-15.8c3.4-8.8,4.2-18.2,5-27.5c0.5-6.4,1.3-12.6,1.9-19c0.1-1.4,0-2.7-1.3-3.6c-1.3-0.9-2.6-0.8-3.8-0.1
			c-2.3,1.1-4.7,2.3-7,3.3c-6.6,2.8-13.4,5.4-19.9,8.4c-9.9,4.6-17,11.9-20,22.6c-1.5,5.1-2,10.2-1,15.6c0.5,2.2,2.2,3.2,4.1,2.8
			c1.9-0.4,2.8-2.2,2.4-4.3c-0.3-1.5-0.5-3.2-0.4-4.8c0.9-10.7,5.4-19.4,15.3-24.4c6-2.9,12.1-5.5,18.2-8c1.8-0.8,3.6-1.4,5.6-2.2
			c0,0.6,0,1,0,1.4c-0.5,7.1-0.9,14.3-1.7,21.4c-0.5,5.5-1.5,11-3.7,16.2c-1.8,4.3-4.1,8.3-8,11.1c-5.5,4-11.6,3.8-17.9,1.9
			c0.4-0.6,0.6-1.3,0.9-1.7c5.7-9.1,11.5-18.1,17.2-27.2c1.3-2.2,1.3-4.1-0.4-5.2c-1.7-1.3-3.6-0.8-5.1,1.3
			c-15.3,22.6-28.6,46.3-38.9,71.5C107.6,115.4,105.3,121.5,102.7,127.9z"/>
		<path class="st0" d="M102.7,127.9c2.6-6.4,5-12.6,7.4-18.7c10.3-25.4,23.6-49,39-71.4c1.4-2,3.3-2.6,5.1-1.3
			c1.7,1.1,1.8,3.1,0.4,5.2c-5.7,9.1-11.5,18.1-17.2,27.2c-0.3,0.5-0.5,1-0.9,1.7c6.4,1.9,12.4,2,17.9-1.9c4-2.8,6.2-6.6,8-11.1
			c2-5.2,3.1-10.6,3.7-16.2c0.6-7.1,1-14.3,1.5-21.4c0-0.4,0-0.8,0-1.4c-1.9,0.8-3.8,1.4-5.6,2.2c-6.1,2.7-12.4,5.1-18.2,8
			c-9.9,5.2-14.4,13.8-15.3,24.6c-0.1,1.5,0.1,3.2,0.4,4.8c0.4,2.2-0.5,4-2.4,4.3c-2,0.4-3.6-0.6-4.1-2.8c-1.1-5.2-0.5-10.3,1-15.6
			c3.1-10.7,10.1-18.1,20-22.6c6.5-2.9,13.3-5.6,19.9-8.4c2.4-1,4.7-2.2,7-3.3c1.3-0.6,2.6-0.8,3.8,0.1c1.3,0.9,1.4,2.2,1.3,3.6
			c-0.6,6.4-1.4,12.6-1.9,19c-0.8,9.3-1.5,18.7-5,27.5c-2.7,6.8-6.6,12.4-13.3,15.8c-6.5,3.3-13.4,3.3-20.3,1.1
			c-1.5-0.5-2.2-0.3-2.9,1.3c-10.5,19.4-18.7,39.8-26,60.6c-0.3,0.9-0.6,1.8-1.3,2.4c-1.8,1.9-4.7,0.9-5.5-1.8
			c-1.5-5.1-3.1-10.1-4.7-15c-9.7-30.1-24.6-57.4-43.9-82.4c-0.6-0.9-1.1-2.2-1.1-3.2c0-1.3,1-2.3,2.3-2.7c1.4-0.4,2.7,0,3.6,1.3
			c2.2,2.9,4.3,5.9,6.5,8.8c17.9,24.4,31.1,51.3,40.3,80.3C102.3,127,102.4,127.4,102.7,127.9z"/>
	</g>
</g>
<g>
	<g>
		<path class="st0" d="M48,169.8l8.2,20.6l-2.4-0.5l7.7-20.1h4.9l-11.7,27.4l-11.7-27.4H48z"/>
		<path class="st0" d="M71.4,169.8h17.4v4H75.7v7h11.7v4H75.7v7.1h13.7v4H71.4V169.8z"/>
		<path class="st0" d="M116,193.6c-0.4,0.3-0.9,0.6-1.5,1c-0.6,0.3-1.4,0.6-2.2,0.9s-1.7,0.5-2.5,0.6c-0.9,0.2-1.7,0.3-2.4,0.3
			c-2.1,0-4-0.3-5.7-1c-1.7-0.6-3.1-1.5-4.3-2.7c-1.2-1.1-2.1-2.5-2.8-4c-0.6-1.5-1-3.3-1-5.1c0-2.3,0.4-4.3,1.1-6
			c0.7-1.7,1.7-3.2,3-4.4s2.7-2.1,4.3-2.7s3.3-0.9,5.1-0.9c1.6,0,3.1,0.2,4.4,0.5s2.5,0.8,3.5,1.4l-1.4,3.9c-0.5-0.3-1-0.5-1.7-0.8
			c-0.7-0.2-1.4-0.4-2.2-0.6c-0.7-0.2-1.4-0.2-2.1-0.2c-1.5,0-2.8,0.2-4,0.6c-1.2,0.4-2.2,1-3.1,1.9s-1.5,1.8-1.9,3
			c-0.4,1.2-0.7,2.5-0.7,3.9c0,1.4,0.2,2.6,0.7,3.7s1.1,2.1,2,2.8s1.8,1.4,3,1.8s2.5,0.6,3.9,0.6c0.8,0,1.6-0.1,2.4-0.2
			c0.8-0.1,1.4-0.4,2-0.7v-4.4h-4.9v-4.1h9.2V193.6z"/>
		<path class="st0" d="M119.6,196l11.6-27.3h0.3L143,196h-4.8l-8.2-20.7l3-2l-9.4,22.7H119.6z M126.9,186.3h8.9l1.4,3.5h-11.7
			L126.9,186.3z"/>
		<path class="st0" d="M170.5,196.9l-20.1-19.5l1.3,0.5l0.1,18.1h-4.2v-27.1h0.2l19.8,19.5l-0.9-0.3l-0.1-18.3h4.2v27.1H170.5z"/>
	</g>
</g>
</svg>
